<svg id="right" xmlns="http://www.w3.org/2000/svg" width="45" height="45" viewBox="0 0 45 45">
  <defs>
    <style>
      .cls-1 {
        opacity: 0.25;
      }

      .cls-2 {
        fill: #fff;
      }

      .cls-3 {
        fill: #303030;
        fill-rule: evenodd;
      }
    </style>
  </defs>
  <g id="left" class="cls-1">
    <rect id="Rounded_Rectangle_3" data-name="Rounded Rectangle 3" class="cls-2" width="45" height="45" rx="2" ry="2"/>
    <path id="fa-angle-left" class="cls-3" d="M1843.17,467.259a0.656,0.656,0,0,0,.2.462l1,1a0.629,0.629,0,0,0,.92,0l9.34-9.341a0.631,0.631,0,0,0,0-.922l-9.34-9.34a0.627,0.627,0,0,0-.92,0l-1,1a0.689,0.689,0,0,0-.2.461,0.7,0.7,0,0,0,.2.462l7.88,7.875-7.88,7.879A0.689,0.689,0,0,0,1843.17,467.259Z" transform="translate(-1826 -437)"/>
  </g>
</svg>
