<svg id="Icon" xmlns="http://www.w3.org/2000/svg" width="111" height="111" viewBox="0 0 111 111">
  <defs>
    <style>
      .cls-1 {
        fill: #fff;
        fill-rule: evenodd;
      }

      .cls-2 {
        fill: none;
        stroke: #fff;
        stroke-width: 1px;
      }
    </style>
  </defs>
  <path id="Forma_1" data-name="Forma 1" class="cls-1" d="M1482.09,2387h-18.18a1.836,1.836,0,0,0-1.91,1.75v25.01a1.2,1.2,0,0,0,.6,1.11,1.446,1.446,0,0,0,1.36-.09l8.05-4.35a2.362,2.362,0,0,1,1.98,0l8.05,4.35a1.676,1.676,0,0,0,.81.22,1.172,1.172,0,0,0,.55-0.13,1.2,1.2,0,0,0,.6-1.11v-25.01A1.836,1.836,0,0,0,1482.09,2387Zm0.95,26.76a0.385,0.385,0,0,1-.12.35,0.508,0.508,0,0,1-.39-0.08l-8.05-4.36a3.484,3.484,0,0,0-2.96,0l-8.05,4.36a0.508,0.508,0,0,1-.39.08,0.385,0.385,0,0,1-.12-0.35v-25.01a0.924,0.924,0,0,1,.95-0.88v0.88a0.467,0.467,0,0,0,.48.44,0.46,0.46,0,0,0,.48-0.44v-0.88h16.26v0.88a0.46,0.46,0,0,0,.48.44,0.467,0.467,0,0,0,.48-0.44v-0.88a0.924,0.924,0,0,1,.95.88v25.01h0Zm-18.65-23.7a0.467,0.467,0,0,0-.48.44v0.87a0.46,0.46,0,0,0,.48.44,0.454,0.454,0,0,0,.48-0.44v-0.87A0.46,0.46,0,0,0,1464.39,2390.06Zm0,2.63a0.459,0.459,0,0,0-.48.43v18.82a0.459,0.459,0,0,0,.48.43,0.452,0.452,0,0,0,.48-0.43v-18.82A0.452,0.452,0,0,0,1464.39,2392.69Zm17.22-2.63a0.46,0.46,0,0,0-.48.44v0.87a0.454,0.454,0,0,0,.48.44,0.46,0.46,0,0,0,.48-0.44v-0.87A0.467,0.467,0,0,0,1481.61,2390.06Zm0,2.63a0.452,0.452,0,0,0-.48.43v18.82a0.452,0.452,0,0,0,.48.43,0.459,0.459,0,0,0,.48-0.43v-18.82A0.459,0.459,0,0,0,1481.61,2392.69Z" transform="translate(-1417 -2345)"/>
  <g id="bg">
    <circle class="cls-2" cx="55.5" cy="55.5" r="55"/>
  </g>
</svg>
